<?xml version="1.0" encoding="utf-8"?>
<svg xmlns="http://www.w3.org/2000/svg" viewBox="0 0 500 500">
  <defs>
    <clipPath id="clip0">
      <rect x="104" y="146" width="1088" height="429"/>
    </clipPath>
  </defs>
  <g clip-path="url(#clip0)" transform="matrix(0.385949, 0, 0, 0.385949, -21.2034, 85.6882)" style="">
    <rect x="980" y="154" width="211" height="272" stroke="#000000" stroke-width="2" stroke-miterlimit="8" fill="#84E291"/>
    <text font-family="CMU Sans Serif,CMU Sans Serif_MSFontService,sans-serif" font-weight="500" font-size="27" transform="translate(1035.2 275)" style="white-space: pre;">Optimize</text>
    <path d="M1068.48 295.446 1070.06 295.446 1070.06 320.814 1068.48 320.814ZM1100.74 295.446 1102.32 295.446 1102.32 320.814 1100.74 320.814ZM997.923 287.844 999.031 288.09 995.196 308.136 999.031 328.183 997.923 328.419 993.309 308.516 993.309 307.757ZM1172.86 287.844 1177.48 307.757 1177.48 308.516 1172.86 328.419 1171.76 328.183 1175.59 308.136 1171.76 288.09Z" fill-rule="evenodd"/>
    <text font-family="Cambria Math,Cambria Math_MSFontService,sans-serif" font-weight="400" font-size="21" transform="translate(999.694 314)" style="white-space: pre;">𝜓</text>
    <text font-family="Cambria Math,Cambria Math_MSFontService,sans-serif" font-weight="400" font-size="21" transform="translate(1015.01 314)" style="white-space: pre;">(</text>
    <text font-family="Cambria Math,Cambria Math_MSFontService,sans-serif" font-weight="400" font-size="21" transform="translate(1023.84 314)" style="white-space: pre;">𝛾</text>
    <path d="M7.73145-13.7095 5.15771-11.4844 4.61426-12.0996 6.25488-13.5249 0-13.5249 0-14.4888 6.25488-14.4888 4.61426-15.9141 5.15771-16.5293 7.73145-14.3042Z" transform="translate(1027.05 314)"/>
    <text fill="#000000" fill-opacity="0" font-family="Arial,Arial_MSFontService,sans-serif" font-size="5.04492" y="-12.115" style="white-space: pre;">Ԧ</text>
    <text font-family="Cambria Math,Cambria Math_MSFontService,sans-serif" font-weight="400" font-size="21" transform="translate(1035.58 314)" style="white-space: pre;">,</text>
    <text font-family="Cambria Math,Cambria Math_MSFontService,sans-serif" font-weight="400" font-size="21" transform="translate(1043.47 314)" style="white-space: pre;">𝛽</text>
    <path d="M7.73145-13.7095 5.15771-11.4844 4.61426-12.0996 6.25488-13.5249 0-13.5249 0-14.4888 6.25488-14.4888 4.61426-15.9141 5.15771-16.5293 7.73145-14.3042Z" transform="translate(1048.59 309)"/>
    <text fill="#000000" fill-opacity="0" font-family="Arial,Arial_MSFontService,sans-serif" font-size="5.04492" y="-12.115" style="white-space: pre;">Ԧ</text>
    <text font-family="Cambria Math,Cambria Math_MSFontService,sans-serif" font-weight="400" font-size="21" transform="translate(1057.11 314)" style="white-space: pre;">)</text>
    <text font-family="Cambria Math,Cambria Math_MSFontService,sans-serif" font-weight="400" font-size="21" transform="translate(1072.7 314)" style="white-space: pre;">𝐻</text>
    <text font-family="Cambria Math,Cambria Math_MSFontService,sans-serif" font-weight="400" font-size="15" transform="translate(1086.95 318)" style="white-space: pre;">𝑃</text>
    <text font-family="Cambria Math,Cambria Math_MSFontService,sans-serif" font-weight="400" font-size="21" transform="translate(1104.96 314)" style="white-space: pre;">𝜓</text>
    <text font-family="Cambria Math,Cambria Math_MSFontService,sans-serif" font-weight="400" font-size="21" transform="translate(1120.27 314)" style="white-space: pre;">(</text>
    <text font-family="Cambria Math,Cambria Math_MSFontService,sans-serif" font-weight="400" font-size="21" transform="translate(1129.11 314)" style="white-space: pre;">𝛾</text>
    <path d="M7.73145-13.7095 5.15771-11.4844 4.61426-12.0996 6.25488-13.5249 0-13.5249 0-14.4888 6.25488-14.4888 4.61426-15.9141 5.15771-16.5293 7.73145-14.3042Z" transform="translate(1132.32 314)"/>
    <text fill="#000000" fill-opacity="0" font-family="Arial,Arial_MSFontService,sans-serif" font-size="5.04492" y="-12.115" style="white-space: pre;">Ԧ</text>
    <text font-family="Cambria Math,Cambria Math_MSFontService,sans-serif" font-weight="400" font-size="21" transform="translate(1140.85 314)" style="white-space: pre;">,</text>
    <text font-family="Cambria Math,Cambria Math_MSFontService,sans-serif" font-weight="400" font-size="21" transform="translate(1148.73 314)" style="white-space: pre;">𝛽</text>
    <path d="M7.73145-13.7095 5.15771-11.4844 4.61426-12.0996 6.25488-13.5249 0-13.5249 0-14.4888 6.25488-14.4888 4.61426-15.9141 5.15771-16.5293 7.73145-14.3042Z" transform="translate(1153.86 309)"/>
    <text fill="#000000" fill-opacity="0" font-family="Arial,Arial_MSFontService,sans-serif" font-size="5.04492" y="-12.115" style="white-space: pre;">Ԧ</text>
    <text font-family="Cambria Math,Cambria Math_MSFontService,sans-serif" font-weight="400" font-size="21" transform="translate(1162.38 314)" style="white-space: pre;">)</text>
    <g>
      <g>
        <g>
          <g>
            <path d="M1.10131 26.5416C1.10131 27.0372 1.10131 27.5328 0.550656 27.5328 0 27.5328 0 27.0372 0 26.5416L0 0.99118C0 0.49559 0 0 0.550656 0 1.10131 0 1.10131 0.49559 1.10131 0.99118L1.10131 26.5416Z" transform="matrix(1.013 0 0 -1 117.859 192.511)"/>
          </g>
          <g>
            <path d="M6.183 18.7339C2.08742 18.7339 0 15.4839 0 9.08953-0.156564 6.64714 0.35497 4.20824 1.47969 2.03458 2.41325 0.735827 3.92314-0.0240501 5.52242 3.82709e-07 9.5123 0 11.5205 3.435 11.5205 10.1993 11.5205 15.986 9.80295 18.7339 6.183 18.7339M5.70738 17.8091C8.27042 17.8091 9.30092 15.2197 9.30092 8.87815 9.30092 3.25004 8.29684 0.924807 5.86592 0.924807 3.30288 0.924807 2.21954 3.59354 2.21954 10.0408 2.21954 15.616 3.19719 17.8091 5.70738 17.8091Z" transform="matrix(1.013 0 0 -1 123.389 186.159)"/>
          </g>
          <g>
            <path d="M6.00215 13.2983C6.13981 13.6287 6.13981 13.6838 6.13981 13.7664 6.13981 13.849 6.13981 13.9041 6.00215 14.2345L1.18391 26.8995C1.01871 27.3676 0.853516 27.5328 0.550656 27.5328 0.246537 27.5328-1.23081e-08 27.2863-1.23081e-08 26.9821 0 26.8995 0 26.8445 0.137664 26.5416L5.01097 13.7664 0.137664 1.04625C0 0.743385 0 0.68832 0 0.550656 0 0.246537 0.246537-1.23081e-08 0.550656-1.23081e-08 0.908582 0 1.01871 0.275328 1.12884 0.550656L6.00215 13.2983Z" transform="matrix(1.013 0 0 -1 137.863 192.511)"/>
          </g>
          <g>
            <path d="M1.50611 3.06507C0.681659 3.02422 0.0265042 2.35758 7.87468e-10 1.53254 0 0.739846 0.713423 0 1.47969 0 2.33505-0.000475324 3.03656 0.677659 3.06507 1.53254 3.06507 2.32523 2.32523 3.06507 1.50611 3.06507Z" transform="matrix(1.013 0 0 -1 545.883 180.207)"/>
          </g>
          <g>
            <path d="M1.50611 3.06507C0.681659 3.02422 0.0265042 2.35758 7.87468e-10 1.53254 0 0.739846 0.713423 0 1.47969 0 2.33505-0.000475324 3.03656 0.677659 3.06507 1.53254 3.06507 2.32523 2.32523 3.06507 1.50611 3.06507Z" transform="matrix(1.013 0 0 -1 557.714 180.207)"/>
          </g>
          <g>
            <path d="M1.50611 3.06507C0.681659 3.02422 0.0265042 2.35758 7.87468e-10 1.53254 0 0.739846 0.713423 0 1.47969 0 2.33505-0.000475324 3.03656 0.677659 3.06507 1.53254 3.06507 2.32523 2.32523 3.06507 1.50611 3.06507Z" transform="matrix(1.013 0 0 -1 569.517 180.207)"/>
          </g>
          <path d="M777.249 52.4828 830.095 52.4828 830.095 12.8499 777.249 12.8499Z" fill="#FFFFFF" transform="matrix(1.013 0 0 1 105.285 146)"/>
          <g>
            <path d="M783.515 37.447C793.62 25.4037 813.724 25.4037 823.829 37.447M803.672 46.2191 817.994 25.5629" stroke="#000000" stroke-width="1.76151" stroke-miterlimit="10" fill="none" transform="matrix(1.013 0 0 1 105.285 146)"/>
            <path d="M820.418 22.0686C820.009 22.42 818.065 23.8654 816.555 24.5661L819.435 26.5619C819.561 24.9042 820.233 22.5747 820.418 22.0686Z" transform="matrix(1.013 0 0 1 105.285 146)"/>
            <path d="M820.418 22.0686C820.009 22.42 818.065 23.8654 816.555 24.5661L819.435 26.5619C819.561 24.9042 820.233 22.5747 820.418 22.0686Z" stroke="#000000" stroke-width="1.74376" stroke-miterlimit="10" fill="none" transform="matrix(1.013 0 0 1 105.285 146)"/>
          </g>
          <path d="M777.249 52.4828 830.095 52.4828 830.095 12.8499 777.249 12.8499Z" stroke="#000000" stroke-width="1.76151" stroke-miterlimit="10" fill="none" transform="matrix(1.013 0 0 1 105.285 146)"/>
          <g>
            <path d="M1.10131 26.5416C1.10131 27.0372 1.10131 27.5328 0.550656 27.5328 0 27.5328 0 27.0372 0 26.5416L0 0.99118C0 0.49559 0 0 0.550656 0 1.10131 0 1.10131 0.49559 1.10131 0.99118L1.10131 26.5416Z" transform="matrix(1.013 0 0 -1 117.859 273.779)"/>
          </g>
          <g>
            <path d="M6.183 18.7339C2.08742 18.7339 0 15.4839 0 9.08953-0.156564 6.64714 0.35497 4.20824 1.47969 2.03458 2.41325 0.735827 3.92314-0.0240501 5.52242 3.82709e-07 9.5123 0 11.5205 3.435 11.5205 10.1993 11.5205 15.986 9.80295 18.7339 6.183 18.7339M5.70738 17.8091C8.27042 17.8091 9.30092 15.2197 9.30092 8.87815 9.30092 3.25004 8.29684 0.924807 5.86592 0.924807 3.30288 0.924807 2.21954 3.59354 2.21954 10.0408 2.21954 15.616 3.19719 17.8091 5.70738 17.8091Z" transform="matrix(1.013 0 0 -1 123.389 267.427)"/>
          </g>
          <g>
            <path d="M6.00215 13.2983C6.13981 13.6287 6.13981 13.6838 6.13981 13.7664 6.13981 13.849 6.13981 13.9041 6.00215 14.2345L1.18391 26.8995C1.01871 27.3676 0.853516 27.5328 0.550656 27.5328 0.246537 27.5328-1.23081e-08 27.2863-1.23081e-08 26.9821 0 26.8995 0 26.8445 0.137664 26.5416L5.01097 13.7664 0.137664 1.04625C0 0.743385 0 0.68832 0 0.550656 0 0.246537 0.246537-1.23081e-08 0.550656-1.23081e-08 0.908582 0 1.01871 0.275328 1.12884 0.550656L6.00215 13.2983Z" transform="matrix(1.013 0 0 -1 137.863 273.779)"/>
          </g>
          <g>
            <path d="M1.50611 3.06507C0.681659 3.02422 0.0265042 2.35758 7.87468e-10 1.53254 0 0.739846 0.713423 0 1.47969 0 2.33505-0.000475324 3.03656 0.677659 3.06507 1.53254 3.06507 2.32523 2.32523 3.06507 1.50611 3.06507Z" transform="matrix(1.013 0 0 -1 545.883 261.475)"/>
          </g>
          <g>
            <path d="M1.50611 3.06507C0.681659 3.02422 0.0265042 2.35758 7.87468e-10 1.53254 0 0.739846 0.713423 0 1.47969 0 2.33505-0.000475324 3.03656 0.677659 3.06507 1.53254 3.06507 2.32523 2.32523 3.06507 1.50611 3.06507Z" transform="matrix(1.013 0 0 -1 557.714 261.475)"/>
          </g>
          <g>
            <path d="M1.50611 3.06507C0.681659 3.02422 0.0265042 2.35758 7.87468e-10 1.53254 0 0.739846 0.713423 0 1.47969 0 2.33505-0.000475324 3.03656 0.677659 3.06507 1.53254 3.06507 2.32523 2.32523 3.06507 1.50611 3.06507Z" transform="matrix(1.013 0 0 -1 569.517 261.475)"/>
          </g>
          <path d="M777.249 133.751 830.095 133.751 830.095 94.118 777.249 94.118Z" fill="#FFFFFF" transform="matrix(1.013 0 0 1 105.285 146)"/>
          <g>
            <path d="M783.515 118.715C793.62 106.672 813.724 106.672 823.829 118.715M803.672 127.487 817.994 106.831" stroke="#000000" stroke-width="1.76151" stroke-miterlimit="10" fill="none" transform="matrix(1.013 0 0 1 105.285 146)"/>
            <path d="M820.418 103.337C820.009 103.688 818.065 105.134 816.555 105.834L819.435 107.83C819.561 106.172 820.233 103.843 820.418 103.337Z" transform="matrix(1.013 0 0 1 105.285 146)"/>
            <path d="M820.418 103.337C820.009 103.688 818.065 105.134 816.555 105.834L819.435 107.83C819.561 106.172 820.233 103.843 820.418 103.337Z" stroke="#000000" stroke-width="1.74376" stroke-miterlimit="10" fill="none" transform="matrix(1.013 0 0 1 105.285 146)"/>
          </g>
          <path d="M777.249 133.751 830.095 133.751 830.095 94.118 777.249 94.118Z" stroke="#000000" stroke-width="1.76151" stroke-miterlimit="10" fill="none" transform="matrix(1.013 0 0 1 105.285 146)"/>
          <g>
            <path d="M0 2.14027 0 0 2.14027 0 2.14027 2.14027 0 2.14027Z" transform="matrix(1.013 0 0 -1 129.745 327.283)"/>
          </g>
          <g>
            <path d="M0 2.14027 0 0 2.14027 0 2.14027 2.14027 0 2.14027Z" transform="matrix(1.013 0 0 -1 129.745 336.09)"/>
          </g>
          <g>
            <path d="M0 2.14027 0 0 2.14027 0 2.14027 2.14027 0 2.14027Z" transform="matrix(1.013 0 0 -1 129.745 344.898)"/>
          </g>
          <g>
            <path d="M0 2.14027 0 0 2.14027 0 2.14027 2.14027 0 2.14027Z" transform="matrix(1.013 0 0 -1 918.307 327.283)"/>
          </g>
          <g>
            <path d="M0 2.14027 0 0 2.14027 0 2.14027 2.14027 0 2.14027Z" transform="matrix(1.013 0 0 -1 918.307 336.09)"/>
          </g>
          <g>
            <path d="M0 2.14027 0 0 2.14027 0 2.14027 2.14027 0 2.14027Z" transform="matrix(1.013 0 0 -1 918.307 344.898)"/>
          </g>
          <g>
            <path d="M1.10131 26.5416C1.10131 27.0372 1.10131 27.5328 0.550656 27.5328 0 27.5328 0 27.0372 0 26.5416L0 0.99118C0 0.49559 0 0 0.550656 0 1.10131 0 1.10131 0.49559 1.10131 0.99118L1.10131 26.5416Z" transform="matrix(1.013 0 0 -1 117.859 416.178)"/>
          </g>
          <g>
            <path d="M6.183 18.7339C2.08742 18.7339 0 15.4839 0 9.08953-0.156564 6.64714 0.35497 4.20824 1.47969 2.03458 2.41325 0.735827 3.92314-0.0240501 5.52242 3.82709e-07 9.5123 0 11.5205 3.435 11.5205 10.1993 11.5205 15.986 9.80295 18.7339 6.183 18.7339M5.70738 17.8091C8.27042 17.8091 9.30092 15.2197 9.30092 8.87815 9.30092 3.25004 8.29684 0.924807 5.86592 0.924807 3.30288 0.924807 2.21954 3.59354 2.21954 10.0408 2.21954 15.616 3.19719 17.8091 5.70738 17.8091Z" transform="matrix(1.013 0 0 -1 123.389 409.824)"/>
          </g>
          <g>
            <path d="M6.00215 13.2983C6.13981 13.6287 6.13981 13.6838 6.13981 13.7664 6.13981 13.849 6.13981 13.9041 6.00215 14.2345L1.18391 26.8995C1.01871 27.3676 0.853516 27.5328 0.550656 27.5328 0.246537 27.5328-1.23081e-08 27.2863-1.23081e-08 26.9821 0 26.8995 0 26.8445 0.137664 26.5416L5.01097 13.7664 0.137664 1.04625C0 0.743385 0 0.68832 0 0.550656 0 0.246537 0.246537-1.23081e-08 0.550656-1.23081e-08 0.908582 0 1.01871 0.275328 1.12884 0.550656L6.00215 13.2983Z" transform="matrix(1.013 0 0 -1 137.863 416.178)"/>
          </g>
          <g>
            <path d="M1.50611 3.06507C0.681659 3.02422 0.0265042 2.35758 7.87468e-10 1.53254 0 0.739846 0.713423 0 1.47969 0 2.33505-0.000475324 3.03656 0.677659 3.06507 1.53254 3.06507 2.32523 2.32523 3.06507 1.50611 3.06507Z" transform="matrix(1.013 0 0 -1 545.883 403.872)"/>
          </g>
          <g>
            <path d="M1.50611 3.06507C0.681659 3.02422 0.0265042 2.35758 7.87468e-10 1.53254 0 0.739846 0.713423 0 1.47969 0 2.33505-0.000475324 3.03656 0.677659 3.06507 1.53254 3.06507 2.32523 2.32523 3.06507 1.50611 3.06507Z" transform="matrix(1.013 0 0 -1 557.714 403.872)"/>
          </g>
          <g>
            <path d="M1.50611 3.06507C0.681659 3.02422 0.0265042 2.35758 7.87468e-10 1.53254 0 0.739846 0.713423 0 1.47969 0 2.33505-0.000475324 3.03656 0.677659 3.06507 1.53254 3.06507 2.32523 2.32523 3.06507 1.50611 3.06507Z" transform="matrix(1.013 0 0 -1 569.517 403.872)"/>
          </g>
          <path d="M777.247 276.15 830.092 276.15 830.092 236.517 777.247 236.517Z" fill="#FFFFFF" transform="matrix(1.013 0 0 1 105.285 146)"/>
          <g>
            <path d="M783.513 261.114C793.618 249.071 813.722 249.071 823.826 261.114M803.67 269.884 817.992 249.23" stroke="#000000" stroke-width="1.76151" stroke-miterlimit="10" fill="none" transform="matrix(1.013 0 0 1 105.285 146)"/>
            <path d="M820.416 245.736C820.007 246.087 818.062 247.533 816.553 248.233L819.433 250.229C819.559 248.572 820.231 246.242 820.416 245.736Z" transform="matrix(1.013 0 0 1 105.285 146)"/>
            <path d="M820.416 245.736C820.007 246.087 818.062 247.533 816.553 248.233L819.433 250.229C819.559 248.572 820.231 246.242 820.416 245.736Z" stroke="#000000" stroke-width="1.74376" stroke-miterlimit="10" fill="none" transform="matrix(1.013 0 0 1 105.285 146)"/>
          </g>
          <path d="M777.247 276.15 830.092 276.15 830.092 236.517 777.247 236.517ZM72.9733 32.6664 41.6463 32.6664M154.418 32.6664 123.093 32.6664M154.418 113.934 123.093 113.934M154.418 256.336 123.093 256.336M287.685 32.6664 256.36 32.6664M287.685 113.934 256.36 113.934M287.685 256.336 256.36 256.336M424.221 32.6664 392.896 32.6664M503.4 32.6664 472.071 32.6664M503.4 113.934 472.071 113.934M503.4 256.336 472.071 256.336M638.252 32.6664 606.925 32.6664M638.252 113.934 606.925 113.934M638.252 256.336 606.925 256.336M777.252 32.6664 745.049 32.6664M862.306 29.5323 830.099 29.5323M862.306 35.7982 830.099 35.7982M72.9733 113.934 41.6463 113.934M424.221 113.934 392.896 113.934M777.252 113.934 745.049 113.934M862.306 110.803 830.099 110.803M862.306 117.068 830.099 117.068M72.9733 256.336 41.6463 256.336M424.221 256.336 392.896 256.336M777.252 256.336 745.049 256.336M862.306 253.202 830.099 253.202M862.306 259.468 830.099 259.468" stroke="#000000" stroke-width="1.76151" stroke-miterlimit="10" fill="none" transform="matrix(1.013 0 0 1 105.285 146)"/>
          <path d="M72.9733 52.4828 123.093 52.4828 123.093 12.8477 72.9733 12.8477Z" fill="#CDCDCD" transform="matrix(1.013 0 0 1 105.285 146)"/>
          <path d="M72.9733 52.4828 123.093 52.4828 123.093 12.8477 72.9733 12.8477Z" stroke="#000000" stroke-width="1.76151" stroke-miterlimit="10" fill="none" transform="matrix(1.013 0 0 1 105.285 146)"/>
          <g>
            <path d="M5.91877 10.2521 7.02853 16.2766C7.2135 17.3071 7.39846 17.4656 8.37611 17.5449L9.48588 17.6242 9.56515 18.364 8.93099 18.364 6.55292 18.2848 4.51834 18.3112 2.82727 18.364 2.748 17.6242 3.98988 17.5713C4.62404 17.5449 4.91469 17.3335 4.91469 16.8579 4.87556 16.1844 4.79613 15.5138 4.67688 14.8498L2.72158 3.38215C2.27238 0.95123 2.24596 0.924807 1.18904 0.819115L0.105692 0.739846 0 0 1.10977 0.0264231 3.48784 0.0792692 6.05088 0 6.73788 0 6.81715 0.739846 5.52242 0.819115C4.809 0.871961 4.57119 1.05692 4.57119 1.61181 4.57119 1.84961 4.59761 2.03458 4.67688 2.53661L5.78665 9.06311 7.39846 9.08953 10.6485 9.14238 13.8985 9.08953 15.5103 9.06311 14.4534 3.38215C14.3685 2.62938 14.1818 1.89162 13.8985 1.18904 13.7928 0.977653 13.5022 0.871961 12.9209 0.819115L11.5997 0.739846 11.494 0 12.9737 0.0264231 15.2197 0.0792692 17.5978 0.0264231 18.7075 0 18.7868 0.739846 17.2543 0.819115C16.5673 0.845538 16.303 1.05692 16.303 1.61181 16.303 1.84961 16.3295 2.08742 16.4087 2.53661L18.8396 16.2766C19.0246 17.3071 19.1831 17.4392 20.1872 17.5449L21.1384 17.6242 21.2177 18.364 20.7949 18.364 18.3904 18.2848 16.2766 18.3112 14.612 18.364 14.5327 17.6242 15.801 17.5713C16.4351 17.5449 16.7258 17.3335 16.7258 16.8579 16.6882 16.1843 16.6087 15.5136 16.488 14.8498L15.6953 10.2521 5.91877 10.2521Z" transform="matrix(1.013 0 0 -1 194.252 187.823)"/>
          </g>
          <path d="M154.418 278.924 256.36 278.924 256.36 10.0784 154.418 10.0784Z" fill="#7BC1E9" transform="matrix(1.013 0 0 1 105.285 146)"/>
          <path d="M154.418 278.924 256.36 278.924 256.36 10.0784 154.418 10.0784Z" stroke="#000000" stroke-width="1.76151" stroke-miterlimit="10" fill="none" transform="matrix(1.013 0 0 1 105.285 146)"/>
          <g>
            <path d="M18.6811 18.047 18.7604 18.7868 18.3376 18.7868 15.9331 18.7075 13.8193 18.7339 12.1546 18.7868 12.0753 18.047 13.3436 17.9941C13.9778 17.9677 14.2685 17.7563 14.2685 17.2543L14.242 16.9372 12.366 5.17892C11.4796 3.95722 10.3099 2.96889 8.95742 2.29881 8.04112 1.79963 7.01503 1.5363 5.97161 1.53254 3.72565 1.53254 2.29881 2.72158 2.29881 4.57119 2.29881 5.02038 2.35165 5.44315 2.48377 6.183L4.809 18.7868 3.98988 18.7604 2.45734 18.7075 0.924807 18.7604 0.0792692 18.7868 0 18.047 1.374 17.9941C2.061 17.9677 2.27238 17.8356 2.27238 17.3864 2.24491 16.872 2.18311 16.36 2.08742 15.8538L0.396346 5.94519C0.297421 5.40455 0.244386 4.85653 0.237808 4.30696 0.237808 1.63823 2.00815 0 4.96754 0 7.83436 0.239919 10.4741 1.65544 12.2603 3.91061 12.0617 2.78407 11.8237 1.6648 11.5469 0.554884L11.679 0.422769 12.2603 0.422769 13.8985 0.502038 15.4311 0.449192 16.2766 0.422769 16.4087 1.16261 14.8233 1.26831C14.2156 1.32115 13.9778 1.47969 13.9778 1.82319 13.9778 2.21954 14.0042 2.35165 14.1363 3.30288L16.3823 16.6994C16.5408 17.7035 16.7258 17.862 17.7299 17.9677L18.6811 18.047Z" transform="matrix(1.013 0 0 -1 272.901 297.885)"/>
          </g>
          <g>
            <path d="M1.90246 13.2181 2.99241 13.1785C3.46803 13.1587 3.68602 13.0001 3.68602 12.6434 3.65667 12.1383 3.5971 11.6353 3.50766 11.1373L2.04118 2.53661C1.70429 0.73324 1.68447 0.673788 0.891778 0.614336L0.0792692 0.554884 0 0 0.832326 0.0198173 2.61588 0.0594519 4.32017 0.0198173 5.37049 0 5.42994 0.554884 4.14181 0.614336C3.62656 0.634153 3.42839 0.792692 3.42839 1.20886 3.42839 1.38721 3.44821 1.52593 3.50766 1.90246L5.13268 11.5535 5.31104 12.3462 5.44976 12.9011C5.9132 12.9952 6.38402 13.0482 6.85678 13.0596 8.87815 13.0596 9.8492 12.1876 9.8492 10.3446 9.8492 8.20436 8.42235 6.46044 6.67843 6.46044 6.13732 6.48481 5.60588 6.61264 5.11286 6.83697L5.1525 6.22263C5.67112 5.92464 6.25866 5.76749 6.85678 5.76683 9.41321 5.76683 11.5931 8.08546 11.5931 10.7806 11.5931 12.7822 10.3446 13.8325 7.98637 13.773L5.25158 13.7136 3.01223 13.7532 1.96191 13.773 1.90246 13.2181Z" transform="matrix(1.013 0 0 -1 291.868 302.056)"/>
          </g>
          <g>
            <path d="M6.38761 0.275328C6.38761 0.357926 6.38761 0.412992 5.91955 0.881049 2.47795 4.35018 1.5969 9.55388 1.5969 13.7664 1.5969 18.5571 2.64315 23.3478 6.02968 26.7894 6.38761 27.1198 6.38761 27.1749 6.38761 27.2575 6.38761 27.4502 6.27748 27.5328 6.11228 27.5328 5.83695 27.5328 3.359 25.6606 1.73457 22.1639 0.556562 19.5229-0.0352048 16.658 2.78984e-08 13.7664 0 11.6188 0.302861 8.28737 1.81716 5.17616 2.72104 3.07346 4.21238 1.27621 6.11228-1.77237e-07 6.27748 0 6.38761 0.0825984 6.38761 0.275328Z" transform="matrix(1.013 0 0 -1 308.414 304.266)"/>
          </g>
          <g>
            <path d="M1.50611 13.2644C1.85972 14.5183 2.52302 15.6632 3.435 16.5937 3.7785 16.9108 4.54477 17.5185 5.23177 17.5185 6.31437 17.4939 7.27937 16.8298 7.68911 15.8274 8.55811 13.9241 8.95686 11.8398 8.85173 9.75011 8.50823 8.19115 8.08546 6.63219 7.76838 5.07323L6.79073 0.237808 7.63626 0C8.08546 0.396346 8.50823 0.898384 9.01026 1.16261L9.72369 5.70738C9.97502 7.53403 10.4913 9.31429 11.2562 10.992 11.9961 12.6302 13.3172 14.2685 13.8985 14.427 14.0835 14.4798 14.1363 14.5327 14.1628 14.612 14.2156 14.8498 14.3213 15.3782 15.0876 16.4351 14.7969 16.5673 14.7969 16.9636 14.6384 16.9636 13.6079 16.6994 11.4676 14.0042 10.0936 10.6485 10.088 11.7333 9.96395 12.8142 9.72369 13.8721 9.47264 15.0616 8.97782 16.1862 8.27042 17.175 7.62651 18.1619 6.51535 18.7425 5.33746 18.7075 4.67688 18.7075 3.61996 18.5226 2.27238 17.3071 1.35669 16.4832 0.588217 15.5092 7.7172e-08 14.427 0.302166 14.0198 0.567446 13.5865 0.792692 13.1323L1.50611 13.2644Z" transform="matrix(1.013 0 0 -1 317.726 303.355)"/>
          </g>
          <g>
            <path d="M0.138721 11.0581 0.336894 11.0581 2.89333 12.2075 2.95278 12.2273C3.07168 12.2273 3.11132 12.0489 3.11132 11.5733L3.11132 1.96191C3.11132 0.931413 2.89333 0.713423 1.82319 0.653971L0.713423 0.594519 0.713423 0 3.98328 0.0594519 5.35067 0.0396346 7.09459 0 7.09459 0.594519 6.06409 0.653971C4.97414 0.713423 4.77597 0.931413 4.77597 1.96191L4.77597 13.7136 4.49853 13.8127C3.04744 13.0696 1.54391 12.4337-3.77985e-08 11.9102L0.138721 11.0581Z" transform="matrix(1.013 0 0 -1 334.627 302.186)"/>
          </g>
          <g>
            <path d="M6.38761 13.7664C6.42329 16.7288 5.80273 19.6624 4.57044 22.3566 3.66657 24.4593 2.17523 26.2566 0.275328 27.5328 0.110131 27.5328 0 27.4227 0 27.2575 0 27.1749 0 27.1198 0.523123 26.6242 3.22134 23.8985 4.7907 19.5207 4.7907 13.7664 4.7907 9.05829 3.77199 4.21252 0.357926 0.743385 0 0.412992 0 0.357926 0 0.275328 0 0.110131 0.110131 0 0.275328 0 0.550656 0 3.02861 1.87223 4.65304 5.36889 6.05721 8.3975 6.38761 11.4536 6.38761 13.7664Z" transform="matrix(1.013 0 0 -1 346.5 304.266)"/>
          </g>
          <path d="M287.685 279.127 392.896 279.127 392.896 9.87284 287.685 9.87284Z" fill="#DD7C7C" transform="matrix(1.013 0 0 1 105.285 146)"/>
          <path d="M287.685 279.127 392.896 279.127 392.896 9.87284 287.685 9.87284Z" stroke="#000000" stroke-width="1.76151" stroke-miterlimit="10" fill="none" transform="matrix(1.013 0 0 1 105.285 146)"/>
          <g>
            <path d="M18.6811 18.047 18.7604 18.7868 18.3376 18.7868 15.9331 18.7075 13.8193 18.7339 12.1546 18.7868 12.0753 18.047 13.3436 17.9941C13.9778 17.9677 14.2685 17.7563 14.2685 17.2543L14.242 16.9372 12.366 5.17892C11.4796 3.95722 10.3099 2.96889 8.95742 2.29881 8.04112 1.79963 7.01503 1.5363 5.97161 1.53254 3.72565 1.53254 2.29881 2.72158 2.29881 4.57119 2.29881 5.02038 2.35165 5.44315 2.48377 6.183L4.809 18.7868 3.98988 18.7604 2.45734 18.7075 0.924807 18.7604 0.0792692 18.7868 0 18.047 1.374 17.9941C2.061 17.9677 2.27238 17.8356 2.27238 17.3864 2.24491 16.872 2.18311 16.36 2.08742 15.8538L0.396346 5.94519C0.297421 5.40455 0.244386 4.85653 0.237808 4.30696 0.237808 1.63823 2.00815 0 4.96754 0 7.83436 0.239919 10.4741 1.65544 12.2603 3.91061 12.0617 2.78407 11.8237 1.6648 11.5469 0.554884L11.679 0.422769 12.2603 0.422769 13.8985 0.502038 15.4311 0.449192 16.2766 0.422769 16.4087 1.16261 14.8233 1.26831C14.2156 1.32115 13.9778 1.47969 13.9778 1.82319 13.9778 2.21954 14.0042 2.35165 14.1363 3.30288L16.3823 16.6994C16.5408 17.7035 16.7258 17.862 17.7299 17.9677L18.6811 18.047Z" transform="matrix(1.013 0 0 -1 407.897 297.68)"/>
          </g>
          <g>
            <path d="M0.0990865 0.51525 0 0 1.84301 0.0594519 2.93296 0.0594519 4.79579 0.0198173 5.70738 0C7.13423 0 8.10527 0.21799 9.13577 0.73324 12.2273 2.31862 14.1297 5.31104 14.1297 8.60071 14.1297 10.5428 13.5352 11.93 12.3264 12.7822 10.9596 13.5357 9.40473 13.8797 7.84765 13.773L3.80492 13.7136 3.60675 13.7136 1.36739 13.773 1.30794 13.2181 2.35826 13.1785C2.83387 13.1587 3.05186 13.0001 3.05186 12.6434 3.02364 12.1382 2.96407 11.6352 2.87351 11.1373L1.1494 1.1494C1.08995 0.832326 0.871961 0.673788 0.257625 0.554884L0.0990865 0.51525M4.75615 12.9407 5.68756 12.9803 7.05496 13.0398C10.6617 13.0398 12.3065 11.5337 12.3065 8.28363 12.383 6.16132 11.6295 4.09273 10.2059 2.5168 9.07864 1.40861 7.54468 0.813661 5.96501 0.871961 5.09304 0.871961 4.122 0.971047 2.77442 1.16922 2.77442 1.40703 2.79424 1.54575 2.85369 1.90246L4.75615 12.9407Z" transform="matrix(1.013 0 0 -1 427.246 301.853)"/>
          </g>
          <g>
            <path d="M6.38761 0.275328C6.38761 0.357926 6.38761 0.412992 5.91955 0.881049 2.47795 4.35018 1.5969 9.55388 1.5969 13.7664 1.5969 18.5571 2.64315 23.3478 6.02968 26.7894 6.38761 27.1198 6.38761 27.1749 6.38761 27.2575 6.38761 27.4502 6.27748 27.5328 6.11228 27.5328 5.83695 27.5328 3.359 25.6606 1.73457 22.1639 0.556562 19.5229-0.0352048 16.658 2.78984e-08 13.7664 0 11.6188 0.302861 8.28737 1.81716 5.17616 2.72104 3.07346 4.21238 1.27621 6.11228-1.77237e-07 6.27748 0 6.38761 0.0825984 6.38761 0.275328Z" transform="matrix(1.013 0 0 -1 446.964 304.061)"/>
          </g>
          <g>
            <path d="M0.396346 0C1.05692 0.211384 1.26831 0.3435 2.00815 0.449192 2.21954 2.80084 2.4045 5.78665 2.85369 7.84765 3.88519 7.27104 5.05484 6.98776 6.23584 7.02853 10.2786 7.02853 13.555 9.93507 13.555 13.5286 13.555 14.9026 13.1058 15.6689 12.181 16.3559 11.4396 16.879 10.5913 17.2309 9.69726 17.3864L9.69726 17.5185C9.77653 17.862 9.96149 18.1791 10.3843 18.7339 10.4823 18.8636 10.5882 18.9872 10.7013 19.1039 12.4188 21.1649 12.9209 21.984 12.9209 23.4373 12.9209 24.8905 11.8375 26.106 10.49 26.106 8.8295 25.8591 7.26756 25.1649 5.97161 24.0978 4.43907 22.9616 4.06915 22.0368 3.72565 20.4779L3.01223 17.175C2.11384 13.0001 1.21546 7.42488 0 0.211384L0.396346 0M5.496 16.5144 5.65453 16.1973C6.29786 16.4722 6.98956 16.6159 7.68911 16.6201 9.98792 16.6201 11.2826 15.5896 11.2826 13.3436 11.3019 11.7503 10.6947 10.2131 9.59157 9.06311 8.86856 8.30979 7.86086 7.89711 6.81715 7.92692 4.809 7.92692 3.59354 9.01026 3.59354 10.7542 3.59354 11.0184 3.59354 11.2826 3.67281 11.7054L4.91469 17.3335C5.496 20.0023 5.94519 22.0368 6.15657 22.6181 6.65861 23.9921 7.76838 24.7848 9.06311 24.7848 10.3843 24.7848 11.2826 23.86 11.2826 22.5124 11.2826 21.3498 10.8863 20.6628 9.40661 18.6018 8.69319 17.9413 8.21757 17.5978 7.13423 17.5978L6.55292 17.6242 5.97161 17.6506 5.496 16.5144Z" transform="matrix(1.013 0 0 -1 456.278 304.498)"/>
          </g>
          <g>
            <path d="M0.138721 11.0581 0.336894 11.0581 2.89333 12.2075 2.95278 12.2273C3.07168 12.2273 3.11132 12.0489 3.11132 11.5733L3.11132 1.96191C3.11132 0.931413 2.89333 0.713423 1.82319 0.653971L0.713423 0.594519 0.713423 0 3.98328 0.0594519 5.35067 0.0396346 7.09459 0 7.09459 0.594519 6.06409 0.653971C4.97414 0.713423 4.77597 0.931413 4.77597 1.96191L4.77597 13.7136 4.49853 13.8127C3.04744 13.0696 1.54391 12.4337-3.77985e-08 11.9102L0.138721 11.0581Z" transform="matrix(1.013 0 0 -1 472.938 301.981)"/>
          </g>
          <g>
            <path d="M6.38761 13.7664C6.42329 16.7288 5.80273 19.6624 4.57044 22.3566 3.66657 24.4593 2.17523 26.2566 0.275328 27.5328 0.110131 27.5328 0 27.4227 0 27.2575 0 27.1749 0 27.1198 0.523123 26.6242 3.22134 23.8985 4.7907 19.5207 4.7907 13.7664 4.7907 9.05829 3.77199 4.21252 0.357926 0.743385 0 0.412992 0 0.357926 0 0.275328 0 0.110131 0.110131 0 0.275328 0 0.550656 0 3.02861 1.87223 4.65304 5.36889 6.05721 8.3975 6.38761 11.4536 6.38761 13.7664Z" transform="matrix(1.013 0 0 -1 484.81 304.061)"/>
          </g>
          <path d="M503.4 280.197 606.925 280.197 606.925 8.80533 503.4 8.80533Z" fill="#7BC1E9" transform="matrix(1.013 0 0 1 105.285 146)"/>
          <path d="M503.4 280.197 606.925 280.197 606.925 8.80533 503.4 8.80533Z" stroke="#000000" stroke-width="1.76151" stroke-miterlimit="10" fill="none" transform="matrix(1.013 0 0 1 105.285 146)"/>
          <g>
            <path d="M18.6811 18.047 18.7604 18.7868 18.3376 18.7868 15.9331 18.7075 13.8193 18.7339 12.1546 18.7868 12.0753 18.047 13.3436 17.9941C13.9778 17.9677 14.2685 17.7563 14.2685 17.2543L14.242 16.9372 12.366 5.17892C11.4796 3.95722 10.3099 2.96889 8.95742 2.29881 8.04112 1.79963 7.01503 1.5363 5.97161 1.53254 3.72565 1.53254 2.29881 2.72158 2.29881 4.57119 2.29881 5.02038 2.35165 5.44315 2.48377 6.183L4.809 18.7868 3.98988 18.7604 2.45734 18.7075 0.924807 18.7604 0.0792692 18.7868 0 18.047 1.374 17.9941C2.061 17.9677 2.27238 17.8356 2.27238 17.3864 2.24491 16.872 2.18311 16.36 2.08742 15.8538L0.396346 5.94519C0.297421 5.40455 0.244386 4.85653 0.237808 4.30696 0.237808 1.63823 2.00815 0 4.96754 0 7.83436 0.239919 10.4741 1.65544 12.2603 3.91061 12.0617 2.78407 11.8237 1.6648 11.5469 0.554884L11.679 0.422769 12.2603 0.422769 13.8985 0.502038 15.4311 0.449192 16.2766 0.422769 16.4087 1.16261 14.8233 1.26831C14.2156 1.32115 13.9778 1.47969 13.9778 1.82319 13.9778 2.21954 14.0042 2.35165 14.1363 3.30288L16.3823 16.6994C16.5408 17.7035 16.7258 17.862 17.7299 17.9677L18.6811 18.047Z" transform="matrix(1.013 0 0 -1 626.412 296.612)"/>
          </g>
          <g>
            <path d="M1.90246 13.2181 2.99241 13.1785C3.46803 13.1587 3.68602 13.0001 3.68602 12.6434 3.65667 12.1383 3.5971 11.6353 3.50766 11.1373L2.04118 2.53661C1.70429 0.73324 1.68447 0.673788 0.891778 0.614336L0.0792692 0.554884 0 0 0.832326 0.0198173 2.61588 0.0594519 4.32017 0.0198173 5.37049 0 5.42994 0.554884 4.14181 0.614336C3.62656 0.634153 3.42839 0.792692 3.42839 1.20886 3.42839 1.38721 3.44821 1.52593 3.50766 1.90246L5.13268 11.5535 5.31104 12.3462 5.44976 12.9011C5.9132 12.9952 6.38402 13.0482 6.85678 13.0596 8.87815 13.0596 9.8492 12.1876 9.8492 10.3446 9.8492 8.20436 8.42235 6.46044 6.67843 6.46044 6.13732 6.48481 5.60588 6.61264 5.11286 6.83697L5.1525 6.22263C5.67112 5.92464 6.25866 5.76749 6.85678 5.76683 9.41321 5.76683 11.5931 8.08546 11.5931 10.7806 11.5931 12.7822 10.3446 13.8325 7.98637 13.773L5.25158 13.7136 3.01223 13.7532 1.96191 13.773 1.90246 13.2181Z" transform="matrix(1.013 0 0 -1 645.38 300.783)"/>
          </g>
          <g>
            <path d="M6.38761 0.275328C6.38761 0.357926 6.38761 0.412992 5.91955 0.881049 2.47795 4.35018 1.5969 9.55388 1.5969 13.7664 1.5969 18.5571 2.64315 23.3478 6.02968 26.7894 6.38761 27.1198 6.38761 27.1749 6.38761 27.2575 6.38761 27.4502 6.27748 27.5328 6.11228 27.5328 5.83695 27.5328 3.359 25.6606 1.73457 22.1639 0.556562 19.5229-0.0352048 16.658 2.78984e-08 13.7664 0 11.6188 0.302861 8.28737 1.81716 5.17616 2.72104 3.07346 4.21238 1.27621 6.11228-1.77237e-07 6.27748 0 6.38761 0.0825984 6.38761 0.275328Z" transform="matrix(1.013 0 0 -1 661.925 302.993)"/>
          </g>
          <g>
            <path d="M1.50611 13.2644C1.85972 14.5183 2.52302 15.6632 3.435 16.5937 3.7785 16.9108 4.54477 17.5185 5.23177 17.5185 6.31437 17.4939 7.27937 16.8298 7.68911 15.8274 8.55811 13.9241 8.95686 11.8398 8.85173 9.75011 8.50823 8.19115 8.08546 6.63219 7.76838 5.07323L6.79073 0.237808 7.63626 0C8.08546 0.396346 8.50823 0.898384 9.01026 1.16261L9.72369 5.70738C9.97502 7.53403 10.4913 9.31429 11.2562 10.992 11.9961 12.6302 13.3172 14.2685 13.8985 14.427 14.0835 14.4798 14.1363 14.5327 14.1628 14.612 14.2156 14.8498 14.3213 15.3782 15.0876 16.4351 14.7969 16.5673 14.7969 16.9636 14.6384 16.9636 13.6079 16.6994 11.4676 14.0042 10.0936 10.6485 10.088 11.7333 9.96395 12.8142 9.72369 13.8721 9.47264 15.0616 8.97782 16.1862 8.27042 17.175 7.62651 18.1619 6.51535 18.7425 5.33746 18.7075 4.67688 18.7075 3.61996 18.5226 2.27238 17.3071 1.35669 16.4832 0.588217 15.5092 7.7172e-08 14.427 0.302166 14.0198 0.567446 13.5865 0.792692 13.1323L1.50611 13.2644Z" transform="matrix(1.013 0 0 -1 671.237 302.082)"/>
          </g>
          <g>
            <path d="M2.41771 5.52903 2.59607 5.46957C2.92765 5.34899 3.27455 5.2756 3.62656 5.25158 4.73633 5.25158 7.01532 6.69825 7.86747 7.94674 8.76562 9.42063 9.27687 11.0975 9.35376 12.8218 9.35376 14.1495 8.89797 15.0215 8.18454 15.0215 7.35222 15.0215 6.3019 14.5063 5.2714 13.5748 4.48927 12.9077 3.83752 12.1014 3.34912 11.1968L3.82474 13.555C3.88167 13.8425 3.91481 14.1341 3.92382 14.427 3.92382 14.8035 3.76529 15.0215 3.48784 15.0215 3.07168 15.0215 2.31862 14.6053 0.852144 13.555L0.297259 13.1587 0.43598 12.7623 1.07013 13.1785C1.62502 13.5352 1.84301 13.6343 2.02136 13.6343 2.21954 13.6343 2.35826 13.4559 2.35826 13.1785 2.34946 12.9259 2.32296 12.6743 2.27899 12.4254L1.12959 5.62811C0.843404 4.02874 0.519633 2.4363 0.158538 0.852144L0 0.118904 0.138721 0C0.609881 0.155393 1.09405 0.268144 1.58538 0.336894L2.41771 5.52903M2.97259 8.73943C3.40857 11.276 5.52903 13.8721 7.17386 13.8721 7.68911 13.8721 7.92692 13.4361 7.92692 12.5245 7.92692 10.9193 7.13423 8.56107 6.08391 7.05496 5.68756 6.48026 5.05341 6.183 4.2409 6.183 3.66612 6.17124 3.10071 6.32984 2.61588 6.63879L2.97259 8.73943Z" transform="matrix(1.013 0 0 -1 688.148 305.544)"/>
          </g>
          <g>
            <path d="M6.38761 13.7664C6.42329 16.7288 5.80273 19.6624 4.57044 22.3566 3.66657 24.4593 2.17523 26.2566 0.275328 27.5328 0.110131 27.5328 0 27.4227 0 27.2575 0 27.1749 0 27.1198 0.523123 26.6242 3.22134 23.8985 4.7907 19.5207 4.7907 13.7664 4.7907 9.05829 3.77199 4.21252 0.357926 0.743385 0 0.412992 0 0.357926 0 0.275328 0 0.110131 0.110131 0 0.275328 0 0.550656 0 3.02861 1.87223 4.65304 5.36889 6.05721 8.3975 6.38761 11.4536 6.38761 13.7664Z" transform="matrix(1.013 0 0 -1 701.617 302.993)"/>
          </g>
          <path d="M638.252 280.197 745.047 280.197 745.047 8.80533 638.252 8.80533Z" fill="#DD7C7C" transform="matrix(1.013 0 0 1 105.285 146)"/>
          <path d="M638.252 280.197 745.047 280.197 745.047 8.80533 638.252 8.80533Z" stroke="#000000" stroke-width="1.76151" stroke-miterlimit="10" fill="none" transform="matrix(1.013 0 0 1 105.285 146)"/>
          <g>
            <path d="M18.6811 18.047 18.7604 18.7868 18.3376 18.7868 15.9331 18.7075 13.8193 18.7339 12.1546 18.7868 12.0753 18.047 13.3436 17.9941C13.9778 17.9677 14.2685 17.7563 14.2685 17.2543L14.242 16.9372 12.366 5.17892C11.4796 3.95722 10.3099 2.96889 8.95742 2.29881 8.04112 1.79963 7.01503 1.5363 5.97161 1.53254 3.72565 1.53254 2.29881 2.72158 2.29881 4.57119 2.29881 5.02038 2.35165 5.44315 2.48377 6.183L4.809 18.7868 3.98988 18.7604 2.45734 18.7075 0.924807 18.7604 0.0792692 18.7868 0 18.047 1.374 17.9941C2.061 17.9677 2.27238 17.8356 2.27238 17.3864 2.24491 16.872 2.18311 16.36 2.08742 15.8538L0.396346 5.94519C0.297421 5.40455 0.244386 4.85653 0.237808 4.30696 0.237808 1.63823 2.00815 0 4.96754 0 7.83436 0.239919 10.4741 1.65544 12.2603 3.91061 12.0617 2.78407 11.8237 1.6648 11.5469 0.554884L11.679 0.422769 12.2603 0.422769 13.8985 0.502038 15.4311 0.449192 16.2766 0.422769 16.4087 1.16261 14.8233 1.26831C14.2156 1.32115 13.9778 1.47969 13.9778 1.82319 13.9778 2.21954 14.0042 2.35165 14.1363 3.30288L16.3823 16.6994C16.5408 17.7035 16.7258 17.862 17.7299 17.9677L18.6811 18.047Z" transform="matrix(1.013 0 0 -1 763.014 296.612)"/>
          </g>
          <g>
            <path d="M0.0990865 0.51525 0 0 1.84301 0.0594519 2.93296 0.0594519 4.79579 0.0198173 5.70738 0C7.13423 0 8.10527 0.21799 9.13577 0.73324 12.2273 2.31862 14.1297 5.31104 14.1297 8.60071 14.1297 10.5428 13.5352 11.93 12.3264 12.7822 10.9596 13.5357 9.40473 13.8797 7.84765 13.773L3.80492 13.7136 3.60675 13.7136 1.36739 13.773 1.30794 13.2181 2.35826 13.1785C2.83387 13.1587 3.05186 13.0001 3.05186 12.6434 3.02364 12.1382 2.96407 11.6352 2.87351 11.1373L1.1494 1.1494C1.08995 0.832326 0.871961 0.673788 0.257625 0.554884L0.0990865 0.51525M4.75615 12.9407 5.68756 12.9803 7.05496 13.0398C10.6617 13.0398 12.3065 11.5337 12.3065 8.28363 12.383 6.16132 11.6295 4.09273 10.2059 2.5168 9.07864 1.40861 7.54468 0.813661 5.96501 0.871961 5.09304 0.871961 4.122 0.971047 2.77442 1.16922 2.77442 1.40703 2.79424 1.54575 2.85369 1.90246L4.75615 12.9407Z" transform="matrix(1.013 0 0 -1 782.363 300.783)"/>
          </g>
          <g>
            <path d="M6.38761 0.275328C6.38761 0.357926 6.38761 0.412992 5.91955 0.881049 2.47795 4.35018 1.5969 9.55388 1.5969 13.7664 1.5969 18.5571 2.64315 23.3478 6.02968 26.7894 6.38761 27.1198 6.38761 27.1749 6.38761 27.2575 6.38761 27.4502 6.27748 27.5328 6.11228 27.5328 5.83695 27.5328 3.359 25.6606 1.73457 22.1639 0.556562 19.5229-0.0352048 16.658 2.78984e-08 13.7664 0 11.6188 0.302861 8.28737 1.81716 5.17616 2.72104 3.07346 4.21238 1.27621 6.11228-1.77237e-07 6.27748 0 6.38761 0.0825984 6.38761 0.275328Z" transform="matrix(1.013 0 0 -1 802.081 302.993)"/>
          </g>
          <g>
            <path d="M0.396346 0C1.05692 0.211384 1.26831 0.3435 2.00815 0.449192 2.21954 2.80084 2.4045 5.78665 2.85369 7.84765 3.88519 7.27104 5.05484 6.98776 6.23584 7.02853 10.2786 7.02853 13.555 9.93507 13.555 13.5286 13.555 14.9026 13.1058 15.6689 12.181 16.3559 11.4396 16.879 10.5913 17.2309 9.69726 17.3864L9.69726 17.5185C9.77653 17.862 9.96149 18.1791 10.3843 18.7339 10.4823 18.8636 10.5882 18.9872 10.7013 19.1039 12.4188 21.1649 12.9209 21.984 12.9209 23.4373 12.9209 24.8905 11.8375 26.106 10.49 26.106 8.8295 25.8591 7.26756 25.1649 5.97161 24.0978 4.43907 22.9616 4.06915 22.0368 3.72565 20.4779L3.01223 17.175C2.11384 13.0001 1.21546 7.42488 0 0.211384L0.396346 0M5.496 16.5144 5.65453 16.1973C6.29786 16.4722 6.98956 16.6159 7.68911 16.6201 9.98792 16.6201 11.2826 15.5896 11.2826 13.3436 11.3019 11.7503 10.6947 10.2131 9.59157 9.06311 8.86856 8.30979 7.86086 7.89711 6.81715 7.92692 4.809 7.92692 3.59354 9.01026 3.59354 10.7542 3.59354 11.0184 3.59354 11.2826 3.67281 11.7054L4.91469 17.3335C5.496 20.0023 5.94519 22.0368 6.15657 22.6181 6.65861 23.9921 7.76838 24.7848 9.06311 24.7848 10.3843 24.7848 11.2826 23.86 11.2826 22.5124 11.2826 21.3498 10.8863 20.6628 9.40661 18.6018 8.69319 17.9413 8.21757 17.5978 7.13423 17.5978L6.55292 17.6242 5.97161 17.6506 5.496 16.5144Z" transform="matrix(1.013 0 0 -1 811.392 303.431)"/>
          </g>
          <g>
            <path d="M2.41771 5.52903 2.59607 5.46957C2.92765 5.34899 3.27455 5.2756 3.62656 5.25158 4.73633 5.25158 7.01532 6.69825 7.86747 7.94674 8.76562 9.42063 9.27687 11.0975 9.35376 12.8218 9.35376 14.1495 8.89797 15.0215 8.18454 15.0215 7.35222 15.0215 6.3019 14.5063 5.2714 13.5748 4.48927 12.9077 3.83752 12.1014 3.34912 11.1968L3.82474 13.555C3.88167 13.8425 3.91481 14.1341 3.92382 14.427 3.92382 14.8035 3.76529 15.0215 3.48784 15.0215 3.07168 15.0215 2.31862 14.6053 0.852144 13.555L0.297259 13.1587 0.43598 12.7623 1.07013 13.1785C1.62502 13.5352 1.84301 13.6343 2.02136 13.6343 2.21954 13.6343 2.35826 13.4559 2.35826 13.1785 2.34946 12.9259 2.32296 12.6743 2.27899 12.4254L1.12959 5.62811C0.843404 4.02874 0.519633 2.4363 0.158538 0.852144L0 0.118904 0.138721 0C0.609881 0.155393 1.09405 0.268144 1.58538 0.336894L2.41771 5.52903M2.97259 8.73943C3.40857 11.276 5.52903 13.8721 7.17386 13.8721 7.68911 13.8721 7.92692 13.4361 7.92692 12.5245 7.92692 10.9193 7.13423 8.56107 6.08391 7.05496 5.68756 6.48026 5.05341 6.183 4.2409 6.183 3.66612 6.17124 3.10071 6.32984 2.61588 6.63879L2.97259 8.73943Z" transform="matrix(1.013 0 0 -1 828.063 305.544)"/>
          </g>
          <g>
            <path d="M6.38761 13.7664C6.42329 16.7288 5.80273 19.6624 4.57044 22.3566 3.66657 24.4593 2.17523 26.2566 0.275328 27.5328 0.110131 27.5328 0 27.4227 0 27.2575 0 27.1749 0 27.1198 0.523123 26.6242 3.22134 23.8985 4.7907 19.5207 4.7907 13.7664 4.7907 9.05829 3.77199 4.21252 0.357926 0.743385 0 0.412992 0 0.357926 0 0.275328 0 0.110131 0.110131 0 0.275328 0 0.550656 0 3.02861 1.87223 4.65304 5.36889 6.05721 8.3975 6.38761 11.4536 6.38761 13.7664Z" transform="matrix(1.013 0 0 -1 841.532 302.993)"/>
          </g>
          <path d="M72.9733 133.753 123.093 133.753 123.093 94.118 72.9733 94.118Z" fill="#CDCDCD" transform="matrix(1.013 0 0 1 105.285 146)"/>
          <path d="M72.9733 133.753 123.093 133.753 123.093 94.118 72.9733 94.118Z" stroke="#000000" stroke-width="1.76151" stroke-miterlimit="10" fill="none" transform="matrix(1.013 0 0 1 105.285 146)"/>
          <g>
            <path d="M5.91877 10.2521 7.02853 16.2766C7.2135 17.3071 7.39846 17.4656 8.37611 17.5449L9.48588 17.6242 9.56515 18.364 8.93099 18.364 6.55292 18.2848 4.51834 18.3112 2.82727 18.364 2.748 17.6242 3.98988 17.5713C4.62404 17.5449 4.91469 17.3335 4.91469 16.8579 4.87556 16.1844 4.79613 15.5138 4.67688 14.8498L2.72158 3.38215C2.27238 0.95123 2.24596 0.924807 1.18904 0.819115L0.105692 0.739846 0 0 1.10977 0.0264231 3.48784 0.0792692 6.05088 0 6.73788 0 6.81715 0.739846 5.52242 0.819115C4.809 0.871961 4.57119 1.05692 4.57119 1.61181 4.57119 1.84961 4.59761 2.03458 4.67688 2.53661L5.78665 9.06311 7.39846 9.08953 10.6485 9.14238 13.8985 9.08953 15.5103 9.06311 14.4534 3.38215C14.3685 2.62938 14.1818 1.89162 13.8985 1.18904 13.7928 0.977653 13.5022 0.871961 12.9209 0.819115L11.5997 0.739846 11.494 0 12.9737 0.0264231 15.2197 0.0792692 17.5978 0.0264231 18.7075 0 18.7868 0.739846 17.2543 0.819115C16.5673 0.845538 16.303 1.05692 16.303 1.61181 16.303 1.84961 16.3295 2.08742 16.4087 2.53661L18.8396 16.2766C19.0246 17.3071 19.1831 17.4392 20.1872 17.5449L21.1384 17.6242 21.2177 18.364 20.7949 18.364 18.3904 18.2848 16.2766 18.3112 14.612 18.364 14.5327 17.6242 15.801 17.5713C16.4351 17.5449 16.7258 17.3335 16.7258 16.8579 16.6882 16.1843 16.6087 15.5136 16.488 14.8498L15.6953 10.2521 5.91877 10.2521Z" transform="matrix(1.013 0 0 -1 194.252 269.091)"/>
          </g>
          <path d="M72.9733 276.152 123.093 276.152 123.093 236.517 72.9733 236.517Z" fill="#CDCDCD" transform="matrix(1.013 0 0 1 105.285 146)"/>
          <path d="M72.9733 276.152 123.093 276.152 123.093 236.517 72.9733 236.517Z" stroke="#000000" stroke-width="1.76151" stroke-miterlimit="10" fill="none" transform="matrix(1.013 0 0 1 105.285 146)"/>
          <g>
            <path d="M5.91877 10.2521 7.02853 16.2766C7.2135 17.3071 7.39846 17.4656 8.37611 17.5449L9.48588 17.6242 9.56515 18.364 8.93099 18.364 6.55292 18.2848 4.51834 18.3112 2.82727 18.364 2.748 17.6242 3.98988 17.5713C4.62404 17.5449 4.91469 17.3335 4.91469 16.8579 4.87556 16.1844 4.79613 15.5138 4.67688 14.8498L2.72158 3.38215C2.27238 0.95123 2.24596 0.924807 1.18904 0.819115L0.105692 0.739846 0 0 1.10977 0.0264231 3.48784 0.0792692 6.05088 0 6.73788 0 6.81715 0.739846 5.52242 0.819115C4.809 0.871961 4.57119 1.05692 4.57119 1.61181 4.57119 1.84961 4.59761 2.03458 4.67688 2.53661L5.78665 9.06311 7.39846 9.08953 10.6485 9.14238 13.8985 9.08953 15.5103 9.06311 14.4534 3.38215C14.3685 2.62938 14.1818 1.89162 13.8985 1.18904 13.7928 0.977653 13.5022 0.871961 12.9209 0.819115L11.5997 0.739846 11.494 0 12.9737 0.0264231 15.2197 0.0792692 17.5978 0.0264231 18.7075 0 18.7868 0.739846 17.2543 0.819115C16.5673 0.845538 16.303 1.05692 16.303 1.61181 16.303 1.84961 16.3295 2.08742 16.4087 2.53661L18.8396 16.2766C19.0246 17.3071 19.1831 17.4392 20.1872 17.5449L21.1384 17.6242 21.2177 18.364 20.7949 18.364 18.3904 18.2848 16.2766 18.3112 14.612 18.364 14.5327 17.6242 15.801 17.5713C16.4351 17.5449 16.7258 17.3335 16.7258 16.8579 16.6882 16.1843 16.6087 15.5136 16.488 14.8498L15.6953 10.2521 5.91877 10.2521Z" transform="matrix(1.013 0 0 -1 194.252 411.486)"/>
          </g>
        </g>
      </g>
    </g>
    <rect x="259" y="474" width="604" height="100" stroke="#000000" stroke-width="2" stroke-miterlimit="8" fill="#F6C6AD"/>
    <text font-family="CMU Sans Serif,CMU Sans Serif_MSFontService,sans-serif" font-weight="500" font-size="27" transform="translate(434.622 513)" style="white-space: pre;">Variational parameters</text>
    <path d="M463.71 528.472C466.147 529.113 468.026 530.773 469.346 533.453 470.667 536.132 471.327 539.304 471.327 542.968 471.327 546.632 470.667 549.804 469.346 552.484 468.026 555.164 466.147 556.824 463.71 557.464L463.417 556.504C465.307 555.793 466.739 554.244 467.712 551.857 468.684 549.47 469.171 546.511 469.171 542.98 469.171 539.441 468.684 536.476 467.712 534.086 466.739 531.695 465.307 530.144 463.417 529.433ZM424.062 528.472 424.355 529.433C422.464 530.144 421.032 531.695 420.06 534.086 419.087 536.476 418.601 539.441 418.601 542.98 418.601 546.511 419.087 549.47 420.06 551.857 421.032 554.244 422.464 555.793 424.355 556.504L424.062 557.464C421.624 556.824 419.745 555.164 418.425 552.484 417.105 549.804 416.444 546.632 416.444 542.968 416.444 539.304 417.105 536.132 418.425 533.453 419.745 530.773 421.624 529.113 424.062 528.472Z" fill-rule="evenodd"/>
    <text font-family="Cambria Math,Cambria Math_MSFontService,sans-serif" font-weight="400" font-size="24" transform="translate(425.115 550)" style="white-space: pre;">𝛾</text>
    <path d="M8.83594-15.668 5.89453-13.125 5.27344-13.8281 7.14844-15.457 0-15.457 0-16.5586 7.14844-16.5586 5.27344-18.1875 5.89453-18.8906 8.83594-16.3477Z" transform="translate(428.722 550)"/>
    <text fill="#000000" fill-opacity="0" font-family="Arial,Arial_MSFontService,sans-serif" font-size="5.76562" y="-13.8457" style="white-space: pre;">Ԧ</text>
    <text font-family="Cambria Math,Cambria Math_MSFontService,sans-serif" font-weight="400" font-size="24" transform="translate(438.428 550)" style="white-space: pre;">,</text>
    <text font-family="Cambria Math,Cambria Math_MSFontService,sans-serif" font-weight="400" font-size="24" transform="translate(447.428 550)" style="white-space: pre;">𝛽</text>
    <path d="M8.83594-15.668 5.89453-13.125 5.27344-13.8281 7.14844-15.457 0-15.457 0-16.5586 7.14844-16.5586 5.27344-18.1875 5.89453-18.8906 8.83594-16.3477Z" transform="translate(453.195 544)"/>
    <text fill="#000000" fill-opacity="0" font-family="Arial,Arial_MSFontService,sans-serif" font-size="5.76562" y="-13.8457" style="white-space: pre;">Ԧ</text>
    <text font-family="Cambria Math,Cambria Math_MSFontService,sans-serif" font-weight="400" font-size="24" transform="translate(480.102 550)" style="white-space: pre;">=</text>
    <text font-family="Cambria Math,Cambria Math_MSFontService,sans-serif" font-weight="400" font-size="24" transform="translate(504.768 550)" style="white-space: pre;">(</text>
    <text font-family="Cambria Math,Cambria Math_MSFontService,sans-serif" font-weight="400" font-size="24" transform="translate(514.768 550)" style="white-space: pre;">𝛾</text>
    <text font-family="Cambria Math,Cambria Math_MSFontService,sans-serif" font-weight="400" font-size="18" transform="translate(526.082 555)" style="white-space: pre;">1</text>
    <text font-family="Cambria Math,Cambria Math_MSFontService,sans-serif" font-weight="400" font-size="24" transform="translate(537.242 550)" style="white-space: pre;">,</text>
    <text font-family="Cambria Math,Cambria Math_MSFontService,sans-serif" font-weight="400" font-size="24" transform="translate(546.242 550)" style="white-space: pre;">…</text>
    <text font-family="Cambria Math,Cambria Math_MSFontService,sans-serif" font-weight="400" font-size="24" transform="translate(568.242 550)" style="white-space: pre;">,</text>
    <text font-family="Cambria Math,Cambria Math_MSFontService,sans-serif" font-weight="400" font-size="24" transform="translate(577.242 550)" style="white-space: pre;">𝛾</text>
    <text font-family="Cambria Math,Cambria Math_MSFontService,sans-serif" font-weight="400" font-size="18" transform="translate(587.608 555)" style="white-space: pre;">𝑝</text>
    <text font-family="Cambria Math,Cambria Math_MSFontService,sans-serif" font-weight="400" font-size="24" transform="translate(599.815 550)" style="white-space: pre;">,</text>
    <text font-family="Cambria Math,Cambria Math_MSFontService,sans-serif" font-weight="400" font-size="24" transform="translate(608.815 550)" style="white-space: pre;">𝛽</text>
    <text font-family="Cambria Math,Cambria Math_MSFontService,sans-serif" font-weight="400" font-size="18" transform="translate(621.235 555)" style="white-space: pre;">1</text>
    <text font-family="Cambria Math,Cambria Math_MSFontService,sans-serif" font-weight="400" font-size="24" transform="translate(632.395 550)" style="white-space: pre;">,</text>
    <text font-family="Cambria Math,Cambria Math_MSFontService,sans-serif" font-weight="400" font-size="24" transform="translate(641.395 550)" style="white-space: pre;">…</text>
    <text font-family="Cambria Math,Cambria Math_MSFontService,sans-serif" font-weight="400" font-size="24" transform="translate(663.395 550)" style="white-space: pre;">,</text>
    <text font-family="Cambria Math,Cambria Math_MSFontService,sans-serif" font-weight="400" font-size="24" transform="translate(672.395 550)" style="white-space: pre;">𝛽</text>
    <text font-family="Cambria Math,Cambria Math_MSFontService,sans-serif" font-weight="400" font-size="18" transform="translate(685.368 555)" style="white-space: pre;">𝑝</text>
    <text font-family="Cambria Math,Cambria Math_MSFontService,sans-serif" font-weight="400" font-size="24" transform="translate(697.575 550)" style="white-space: pre;">)</text>
    <path d="M1086.65 426 1086.65 524.507 869.667 524.507 869.667 522.507 1085.65 522.507 1084.65 523.507 1084.65 426ZM871 527.507 863 523.507 871 519.507Z"/>
    <path d="M1-2.27219e-06 1.00009 39.5385-0.99991 39.5385-1 2.27219e-06ZM4.00009 38.2051 0.000104987 46.2051-3.99991 38.2052Z" transform="matrix(1 0 0 -1 806 473.205)"/>
    <path d="M1-2.27219e-06 1.00009 39.5385-0.99991 39.5385-1 2.27219e-06ZM4.00009 38.2051 0.000104987 46.2051-3.99991 38.2052Z" transform="matrix(1 0 0 -1 668 473.205)"/>
    <path d="M1-2.20167e-06 1.00009 41.0184-0.99991 41.0184-1 2.20167e-06ZM4.00009 39.685 0.000104987 47.685-3.99991 39.685Z" transform="matrix(1 0 0 -1 450 473.685)"/>
    <path d="M1-2.20167e-06 1.00009 41.0184-0.99991 41.0184-1 2.20167e-06ZM4.00009 39.685 0.000104987 47.685-3.99991 39.685Z" transform="matrix(1 0 0 -1 314 474.685)"/>
  </g>
</svg>